<?xml version="1.0" encoding="utf-8"?>
<!-- Generator: Adobe Illustrator 27.5.0, SVG Export Plug-In . SVG Version: 6.00 Build 0)  -->
<svg version="1.1" xmlns="http://www.w3.org/2000/svg" xmlns:xlink="http://www.w3.org/1999/xlink" x="0px" y="0px"
	 viewBox="0 0 500 500" style="enable-background:new 0 0 500 500;" xml:space="preserve">
<g id="Floor">
	<ellipse id="Floor_6_" style="fill:#F5F5F5;" cx="244.986" cy="349.691" rx="225.046" ry="129.93"/>
</g>
<g id="Shadows">
	<ellipse id="Shadow_11_" style="fill:#E0E0E0;" cx="283.506" cy="397.24" rx="41.378" ry="23.89"/>
	<ellipse id="Shadow_28_" style="fill:#E0E0E0;" cx="391.159" cy="383.094" rx="41.378" ry="23.89"/>
	<ellipse id="Shadow_29_" style="fill:#E0E0E0;" cx="164.821" cy="433.061" rx="41.378" ry="23.89"/>
</g>
<g id="Plants">
	<g id="Plants_1_">
		<g id="XMLID_3168_">
			<path id="XMLID_3172_" style="fill:#37474F;" d="M96.982,354.499c0,0-1.085-25.262-11.671-39.316
				c-10.586-14.054-23.572-16.082-30.015-12.126c-4.695,2.883-4.062,11.44,4.066,17.033c8.128,5.593,23.797,19.812,26.245,29.103
				L96.982,354.499z"/>
			<g id="XMLID_3169_">
				<path id="XMLID_3170_" style="fill:#FFFFFF;" d="M90.032,350.819c-0.356-0.022-0.631-0.327-0.614-0.685
					c1.088-22.92-19.025-37.211-24.471-39.784c-0.327-0.155-0.467-0.546-0.313-0.872c0.155-0.329,0.546-0.463,0.872-0.313
					c5.613,2.652,26.342,17.386,25.221,41.031c-0.018,0.362-0.325,0.641-0.685,0.624C90.042,350.819,90.035,350.819,90.032,350.819z
					"/>
			</g>
		</g>
		<g id="XMLID_3162_">
			<path id="XMLID_3167_" style="fill:#455A64;" d="M91.952,346.524c-1.471-0.211-2.895-0.473-3.863-1.539
				c-1.233-1.358-1.128-3.424-1.696-5.168c-0.93-2.859-3.751-4.796-6.694-5.411s-6.001-0.11-8.921,0.607
				c-5.898,1.448-11.568-2.183-17.48-1.754c-2.111,0.153-4.255,0.655-5.986,1.873c-1.731,1.218-2.984,3.25-2.865,5.363
				c0.1,1.762,1.122,3.37,2.435,4.55c1.313,1.18,2.905,1.995,4.478,2.797c1.729,0.881,3.457,1.763,5.186,2.644
				c0.857,0.437,1.73,0.885,2.411,1.564c1.282,1.278,2.171,3.751,1.812,5.525c-0.4,1.979-2.024,3.524-2.506,5.484
				c-0.633,2.574,0.939,5.323,3.196,6.713c2.257,1.391,5.036,1.653,7.683,1.5c2.646-0.153,5.266-0.682,7.916-0.729
				c1.786-0.032,3.646,0.18,5.163,1.122c1.851,1.149,2.928,3.216,3.628,5.279c0.45,1.327,0.797,2.725,1.623,3.856
				c0.856,1.172,2.16,1.952,3.523,2.45c2.613,0.956,5.65,0.985,8.258-0.015c2.186-0.838,3.256-3.309,4.072-5.447
				c0.82-2.146,1.209-4.707,1.151-6.984c-0.151-5.95-1.491-12.37-4.068-17.741c-1.231-2.564-3.018-5.123-5.72-6.01
				C93.826,346.771,92.88,346.657,91.952,346.524z"/>
			<g id="XMLID_3165_">
				<path id="XMLID_3166_" style="fill:#FFFFFF;" d="M97.681,373.989c-0.242,0-0.467-0.151-0.551-0.391
					c-6.165-17.687-35.363-33.082-46.039-34.846c-0.318-0.052-0.534-0.352-0.481-0.671c0.052-0.319,0.36-0.536,0.671-0.481
					c10.879,1.797,40.647,17.526,46.951,35.612c0.107,0.304-0.054,0.637-0.358,0.743C97.81,373.979,97.745,373.989,97.681,373.989z"
					/>
			</g>
			<g id="XMLID_3163_">
				<path id="XMLID_3164_" style="fill:#FFFFFF;" d="M71.444,364.305c-0.174,0-0.348-0.079-0.463-0.228
					c-0.196-0.255-0.148-0.623,0.107-0.819c0.266-0.204,6.609-4.994,16.217-5.21h0.013c0.317,0,0.577,0.253,0.584,0.571
					c0.007,0.322-0.249,0.59-0.571,0.596c-9.228,0.206-15.469,4.92-15.531,4.968C71.694,364.265,71.568,364.305,71.444,364.305z"/>
			</g>
		</g>
	</g>
</g>
<g id="Window">
	<g id="XMLID_3538_">
		<g id="XMLID_4068_">
			<path id="XMLID_4261_" style="fill:#455A64;" d="M97.988,387.679c-1.168-0.675-2.116-2.388-2.116-3.826l-0.001-208.397
				c0-1.439,1.01-3.188,2.256-3.907l245.17-141.539c1.246-0.719,3.203-0.755,4.372-0.081c1.169,0.675,2.116,2.388,2.116,3.826
				l0.001,208.397c0,1.438-1.01,3.188-2.256,3.907l-245.172,141.54C101.113,388.318,99.156,388.354,97.988,387.679z"/>
			<path id="XMLID_4259_" style="fill:#27DEBF;" d="M101.93,387.794c-0.031,0.01-0.063,0.031-0.094,0.031
				c-0.073,0.042-0.146,0.063-0.219,0.083c-0.052,0.021-0.104,0.042-0.167,0.052c-0.094,0.031-0.198,0.062-0.313,0.073
				c-0.063,0.021-0.135,0.042-0.208,0.042c-0.104,0.021-0.229,0.042-0.344,0.052c-0.927,0.104-1.896-0.042-2.594-0.448
				c-1.177-0.677-2.115-2.386-2.115-3.824l-0.01-181.683l4.24,2.448v181.673c0,1.021,0.51,1.615,1.25,1.615
				c0.104,0,0.198-0.01,0.302-0.042c0.021,0,0.031,0,0.052-0.01C101.784,387.846,101.857,387.825,101.93,387.794z"/>
			<path id="XMLID_2826_" style="opacity:0.81;fill:#E0E0E0;" d="M101.93,387.794c-0.031,0.01-0.063,0.031-0.094,0.031
				c-0.073,0.042-0.146,0.063-0.219,0.083c-0.052,0.021-0.104,0.042-0.167,0.052c-0.094,0.031-0.198,0.062-0.313,0.073
				c-0.063,0.021-0.135,0.042-0.208,0.042c-0.104,0.021-0.229,0.042-0.344,0.052c-0.927,0.104-1.896-0.042-2.594-0.448
				c-1.177-0.677-2.115-2.386-2.115-3.824l-0.01-181.683l4.24,2.448v181.673c0,1.021,0.51,1.615,1.25,1.615
				c0.104,0,0.198-0.01,0.302-0.042c0.021,0,0.031,0,0.052-0.01C101.784,387.846,101.857,387.825,101.93,387.794z"/>
			<polygon id="XMLID_2360_" style="fill:#27DEBF;" points="100.107,204.621 95.867,202.172 95.867,242.523 100.107,244.991 			"/>
			<polygon id="XMLID_2359_" style="opacity:0.15;" points="100.107,204.621 95.867,202.172 95.867,242.523 100.107,244.991 			"/>
			<path id="XMLID_4258_" style="fill:#263238;" d="M100.763,175.678c-0.406,0.698-0.656,1.5-0.656,2.219v26.723l-4.24-2.448
				v-26.713c0-0.094,0-0.177,0.01-0.271c0.021-0.188,0.052-0.375,0.094-0.563c0.115-0.469,0.313-0.958,0.563-1.396L100.763,175.678z
				"/>
			<path id="XMLID_4257_" style="fill:#37474F;" d="M349.78,33.752v12.054L170.067,149.559c-1.24,0.719-2.251,0.135-2.251-1.302
				v-4.563c0-1.438-1.01-2.021-2.261-1.302l-54.729,31.599c-1.25,0.719-2.261,2.469-2.261,3.907v4.563
				c0,1.438-1.011,3.188-2.25,3.907l-6.209,3.584v-12.054c0-1.438,1.011-3.188,2.25-3.907L347.53,32.449
				C348.77,31.731,349.78,32.314,349.78,33.752z"/>
			<path id="XMLID_4256_" style="fill:#27DEBF;" d="M349.791,242.148c0,1.438-1.011,3.188-2.261,3.907L102.357,387.596
				c-1.24,0.719-2.25,0.135-2.25-1.302V189.952l6.209-3.584c1.24-0.719,3.261-11.658,4.511-12.377l53.813-31.071
				c1.25-0.719,4.187,7.358,5.427,6.639L349.78,45.806v14.669L349.791,242.148z"/>
			<path id="XMLID_2824_" style="opacity:0.9;fill:#FFFFFF;" d="M349.791,242.148c0,1.438-1.011,3.188-2.261,3.907L102.357,387.596
				c-1.24,0.719-2.25,0.135-2.25-1.302V189.952l6.209-3.584c1.24-0.719,3.261-11.658,4.511-12.377l53.813-31.071
				c1.25-0.719,4.187,7.358,5.427,6.639L349.78,45.806v14.669L349.791,242.148z"/>
			<g id="XMLID_3171_" style="opacity:0.4;">
				<path style="fill:#27DEBF;" d="M348.78,47.538v12.937l0.01,181.673c0,1.081-0.822,2.501-1.761,3.041L101.856,386.731
					c-0.269,0.156-0.441,0.173-0.502,0.173c-0.235,0-0.247-0.508-0.247-0.61V190.529l5.711-3.296
					c0.886-0.514,1.446-2.263,2.707-6.762c0.567-2.024,1.418-5.061,1.876-5.657l53.367-30.813c0.462,0.518,1.236,1.88,1.725,2.741
					c1.442,2.538,2.249,3.862,3.407,3.862c0.235,0,0.466-0.062,0.668-0.179L348.78,47.538 M349.78,45.806L170.067,149.559
					c-0.053,0.031-0.109,0.045-0.168,0.045c-1.261,0-3.821-6.73-5.09-6.73c-0.059,0-0.116,0.015-0.169,0.045l-53.813,31.071
					c-1.25,0.719-3.271,11.658-4.511,12.377l-6.209,3.584v196.342c0,1.02,0.508,1.61,1.247,1.61c0.302,0,0.643-0.099,1.003-0.308
					L347.53,246.055c1.25-0.719,2.261-2.469,2.261-3.907l-0.01-181.673V45.806L349.78,45.806z"/>
			</g>
			<polygon id="XMLID_2357_" style="fill:#27DEBF;" points="100.107,204.621 100.107,244.991 349.78,100.862 349.78,60.475 			"/>
			<path id="XMLID_4249_" style="fill:#F0F0F0;" d="M349.78,45.806v14.669L100.107,204.621v-14.669l4.637-2.686
				c1.24-0.719,1.657-1.812,2.25-3.907l1.572-5.461c0.496-1.896,1.011-3.188,2.261-3.907l53.813-31.071
				c1.25-0.719,2.226-0.798,3.176,0.774l1.93,3.501c0.708,1.223,1.062,1.942,2.301,1.223L349.78,45.806z"/>
			<g id="XMLID_4245_">
				<path id="XMLID_4248_" style="fill:#27DEBF;" d="M339.205,41.311c1.568-0.905,2.839-0.171,2.839,1.639s-1.271,4.011-2.839,4.916
					c-1.568,0.905-2.838,0.171-2.838-1.639C336.366,44.417,337.637,42.216,339.205,41.311z"/>
				<path id="XMLID_4247_" style="fill:#27DEBF;" d="M328.986,47.203c1.568-0.905,2.838-0.171,2.838,1.639
					c0,1.81-1.271,4.011-2.838,4.916c-1.568,0.905-2.839,0.171-2.839-1.639C326.147,50.309,327.418,48.108,328.986,47.203z"/>
				<path id="XMLID_4246_" style="fill:#27DEBF;" d="M318.767,53.095c1.568-0.905,2.838-0.171,2.838,1.639
					c0,1.81-1.271,4.011-2.838,4.916c-1.568,0.905-2.838,0.171-2.838-1.639C315.928,56.201,317.199,54,318.767,53.095z"/>
			</g>
			<path id="XMLID_4244_" style="opacity:0.5;fill:#455A64;" d="M110.454,191.009l-3.541,2.044l1.35-2.597
				c0.119-0.228,0.131-0.512,0.027-0.634c-0.104-0.124-0.284-0.036-0.402,0.19l-1.921,3.695c-0.002,0.004-0.003,0.01-0.005,0.014
				c-0.021,0.043-0.037,0.089-0.051,0.136c-0.005,0.015-0.012,0.03-0.016,0.045c-0.016,0.063-0.025,0.128-0.025,0.191
				c0,0.063,0.009,0.117,0.025,0.162c0.004,0.011,0.011,0.017,0.016,0.027c0.014,0.031,0.03,0.059,0.051,0.077
				c0.002,0.002,0.003,0.006,0.005,0.008l1.921,1.477c0.054,0.042,0.121,0.039,0.188,0c0.079-0.046,0.158-0.142,0.214-0.274
				c0.104-0.243,0.092-0.513-0.027-0.603l-1.35-1.038l3.541-2.044c0.158-0.091,0.285-0.361,0.285-0.603
				C110.739,191.041,110.612,190.918,110.454,191.009z"/>
			<path id="XMLID_4223_" style="opacity:0.5;fill:#455A64;" d="M113.412,189.301l3.541-2.044l-1.35-1.038
				c-0.118-0.091-0.131-0.361-0.027-0.603c0.104-0.243,0.284-0.364,0.402-0.274l1.921,1.477c0.002,0.002,0.003,0.006,0.005,0.008
				c0.021,0.018,0.037,0.046,0.051,0.077c0.005,0.01,0.012,0.016,0.016,0.027c0.015,0.045,0.025,0.099,0.025,0.162
				c0,0.063-0.009,0.128-0.025,0.191c-0.004,0.016-0.011,0.03-0.016,0.045c-0.015,0.048-0.03,0.094-0.051,0.137
				c-0.002,0.004-0.003,0.01-0.005,0.014l-1.921,3.695c-0.054,0.104-0.121,0.178-0.188,0.217c-0.079,0.046-0.158,0.041-0.214-0.026
				c-0.104-0.122-0.092-0.407,0.027-0.634l1.35-2.597l-3.541,2.045c-0.158,0.091-0.285-0.032-0.285-0.274
				C113.127,189.662,113.254,189.392,113.412,189.301z"/>
			<path id="XMLID_4222_" style="opacity:0.5;fill:#455A64;" d="M125.028,179.104c-0.022-0.214-0.208-0.186-0.302,0.045
				l-0.485,1.186c-0.827-0.09-1.829,0.718-2.506,2.151c-0.877,1.857-0.877,4.053,0,4.898c0.438,0.422,1.014,0.427,1.591,0.094
				c0.576-0.332,1.152-1.002,1.59-1.93c0.111-0.236,0.111-0.513,0-0.62c-0.111-0.107-0.291-0.003-0.403,0.233
				c-0.655,1.384-1.72,2.002-2.375,1.371c-0.655-0.63-0.655-2.271,0-3.657c0.466-0.986,1.136-1.57,1.722-1.606l-0.366,0.894
				c-0.095,0.232-0.008,0.448,0.141,0.351l1.444-0.943c0.101-0.066,0.176-0.25,0.161-0.396L125.028,179.104z"/>
			<path id="XMLID_4221_" style="opacity:0.5;fill:#455A64;" d="M163.088,149.615l1.291-2.733c0.153-0.323,0.153-0.704,0-0.851
				c-0.153-0.147-0.4-0.004-0.552,0.319l-1.291,2.733l-1.291-1.242c-0.153-0.147-0.4-0.004-0.553,0.319
				c-0.153,0.323-0.153,0.704,0,0.851l1.291,1.242l-1.291,2.733c-0.153,0.323-0.153,0.704,0,0.851
				c0.076,0.074,0.176,0.074,0.276,0.017c0.1-0.058,0.2-0.174,0.276-0.336l1.291-2.733l1.291,1.242
				c0.076,0.074,0.176,0.074,0.276,0.017c0.1-0.058,0.2-0.174,0.276-0.336c0.153-0.323,0.153-0.704,0-0.851L163.088,149.615z"/>
			<path id="XMLID_4220_" style="fill:#FFFFFF;" d="M129.727,182.464v-4.564c0-1.438,1.01-3.188,2.256-3.907l202.85-117.055
				c1.246-0.719,2.256-0.136,2.256,1.302l0,4.564c0,1.438-1.01,3.188-2.256,3.907l-202.85,117.055
				C130.737,184.485,129.727,183.902,129.727,182.464z"/>
			<g id="XMLID_4216_">
				<path id="XMLID_4217_" style="fill:#E0E0E0;" d="M331.764,66.967c-0.061,0-0.117-0.012-0.166-0.032
					c-0.162-0.067-0.321-0.256-0.282-0.584l0.226-1.89c0.001-0.009,0.002-0.014,0.004-0.016l-0.915-0.661
					c-0.127-0.091-0.198-0.243-0.201-0.427c-0.004-0.269,0.13-0.556,0.335-0.714l1.325-1.022c0.028-0.022,0.068-0.078,0.091-0.15
					l0.592-1.942c0.097-0.319,0.332-0.545,0.585-0.564c0.181-0.016,0.347,0.085,0.429,0.258v0l0.534,1.135l1.201-0.461
					c0.183-0.069,0.372-0.026,0.494,0.112c0.167,0.189,0.174,0.513,0.017,0.806l-0.958,1.799c-0.035,0.066-0.047,0.132-0.042,0.166
					l0.226,1.627c0.04,0.286-0.1,0.575-0.257,0.734c-0.132,0.134-0.291,0.198-0.446,0.178l-1.185-0.147l-1.153,1.541
					C332.072,66.9,331.906,66.967,331.764,66.967z M331.024,63.335l0.914,0.66c0.151,0.11,0.222,0.305,0.194,0.537l-0.187,1.559
					l0.988-1.257c0.141-0.182,0.324-0.272,0.508-0.25l1.186,0.147c-0.019-0.02,0.053-0.156,0.041-0.24l-0.226-1.629
					c-0.022-0.166,0.016-0.357,0.106-0.526l0.957-1.796l-1.097,0.42c-0.233,0.088-0.465-0.005-0.569-0.228l-0.494-1.048
					c-0.002,0.005-0.004,0.011-0.005,0.017l-0.592,1.943c-0.056,0.183-0.164,0.346-0.296,0.448l-1.325,1.021
					C331.066,63.161,331.028,63.274,331.024,63.335z"/>
			</g>
			<g id="XMLID_4071_" style="opacity:0.5;">
				<g id="XMLID_4207_">
					<path id="XMLID_4214_" style="fill:#455A64;" d="M339.749,56.381c-0.271,0-0.533-0.14-0.677-0.391
						c-0.216-0.374-0.087-0.852,0.286-1.067l6.348-3.665c0.375-0.216,0.852-0.088,1.067,0.286c0.216,0.374,0.087,0.852-0.286,1.067
						l-6.348,3.665C340.015,56.347,339.881,56.381,339.749,56.381z"/>
				</g>
				<g id="XMLID_4201_">
					<path id="XMLID_4203_" style="fill:#455A64;" d="M339.749,60.047c-0.271,0-0.533-0.14-0.677-0.391
						c-0.216-0.374-0.087-0.852,0.286-1.067l6.348-3.665c0.375-0.218,0.852-0.087,1.067,0.286c0.216,0.374,0.087,0.852-0.286,1.067
						l-6.348,3.665C340.015,60.013,339.881,60.047,339.749,60.047z"/>
				</g>
				<g id="XMLID_4072_">
					<path id="XMLID_4073_" style="fill:#455A64;" d="M339.749,63.713c-0.271,0-0.533-0.14-0.677-0.391
						c-0.216-0.374-0.087-0.852,0.286-1.067l6.348-3.665c0.375-0.218,0.852-0.087,1.067,0.286c0.216,0.374,0.087,0.852-0.286,1.067
						l-6.348,3.665C340.015,63.68,339.881,63.713,339.749,63.713z"/>
				</g>
			</g>
			<polygon id="XMLID_4070_" style="fill:#E0E0E0;" points="100.107,189.952 100.107,204.621 95.867,202.172 95.867,187.514 			"/>
		</g>
		
			<text id="XMLID_3803_" transform="matrix(0.6495 -0.375 0 1 270.8405 135.6673)" style="fill:#455A64; font-family:'Rubik-Medium'; font-size:24.2967px;">About us</text>
		<g id="XMLID_3542_">
			<polygon id="XMLID_3210_" style="opacity:0.1;fill:#27DEBF;" points="110.939,254.511 179.994,214.642 179.994,327.213 
				110.739,366.967 			"/>
			<g id="XMLID_3281_">
				<path id="XMLID_3211_" style="opacity:0.15;fill:#27DEBF;" d="M195.211,207.93l83.303-48.095
					c1.674-0.966,3.031-0.233,3.031,1.639c0,1.872-1.353,4.179-3.023,5.154l-83.321,48.636c-1.669,0.974-3.022,0.197-3.022-1.736
					l0-0.349C192.179,211.247,193.537,208.896,195.211,207.93z"/>
				<path id="XMLID_3279_" style="opacity:0.1;fill:#27DEBF;" d="M194.344,222.501l137.841-79.582c1.196-0.69,2.165-0.2,2.165,1.095
					c0,1.295-0.969,2.905-2.165,3.595l-137.841,79.582c-1.196,0.69-2.165,0.2-2.165-1.095
					C192.178,224.801,193.148,223.192,194.344,222.501z"/>
				<path id="XMLID_3283_" style="opacity:0.1;fill:#27DEBF;" d="M194.344,231.918l137.841-79.582c1.196-0.69,2.165-0.2,2.165,1.095
					c0,1.295-0.969,2.905-2.165,3.595l-137.841,79.582c-1.196,0.69-2.165,0.2-2.165-1.095S193.148,232.609,194.344,231.918z"/>
				<path id="XMLID_3291_" style="opacity:0.1;fill:#27DEBF;" d="M194.344,241.335l137.841-79.582c1.196-0.69,2.165-0.2,2.165,1.095
					c0,1.295-0.969,2.905-2.165,3.595l-137.841,79.582c-1.196,0.69-2.165,0.2-2.165-1.095
					C192.178,243.635,193.148,242.025,194.344,241.335z"/>
				<path id="XMLID_3292_" style="opacity:0.1;fill:#27DEBF;" d="M194.344,250.751l137.841-79.582c1.196-0.69,2.165-0.2,2.165,1.095
					c0,1.295-0.969,2.905-2.165,3.595l-137.841,79.582c-1.196,0.69-2.165,0.2-2.165-1.095
					C192.178,253.051,193.148,251.442,194.344,250.751z"/>
				<path id="XMLID_3293_" style="opacity:0.1;fill:#27DEBF;" d="M194.344,260.168l96.172-55.967c1.196-0.69,2.165-0.2,2.165,1.095
					c0,1.295-0.97,2.905-2.165,3.595l-96.172,55.966c-1.196,0.69-2.165,0.2-2.165-1.095S193.148,260.859,194.344,260.168z"/>
				<path id="XMLID_3543_" style="opacity:0.1;fill:#27DEBF;" d="M194.344,279.001l137.841-79.582c1.196-0.69,2.165-0.2,2.165,1.095
					c0,1.295-0.969,2.905-2.165,3.595l-137.841,79.582c-1.196,0.69-2.165,0.2-2.165-1.095S193.148,279.692,194.344,279.001z"/>
				<path id="XMLID_3544_" style="opacity:0.1;fill:#27DEBF;" d="M194.344,288.418l137.841-79.582c1.196-0.69,2.165-0.2,2.165,1.095
					c0,1.295-0.969,2.905-2.165,3.595l-137.841,79.582c-1.196,0.69-2.165,0.2-2.165-1.095S193.148,289.109,194.344,288.418z"/>
				<path id="XMLID_3553_" style="opacity:0.1;fill:#27DEBF;" d="M194.344,297.835l137.841-79.582c1.196-0.69,2.165-0.2,2.165,1.095
					c0,1.295-0.969,2.905-2.165,3.595l-137.841,79.582c-1.196,0.69-2.165,0.2-2.165-1.095
					C192.178,300.135,193.148,298.525,194.344,297.835z"/>
				<path id="XMLID_3554_" style="opacity:0.1;fill:#27DEBF;" d="M194.344,307.251l50.643-29.56c1.196-0.69,2.165-0.2,2.165,1.095
					c0,1.295-0.97,2.905-2.165,3.595l-50.643,29.559c-1.196,0.69-2.165,0.2-2.165-1.095S193.148,307.942,194.344,307.251z"/>
			</g>
		</g>
	</g>
</g>
<g id="Character_3">
	<g id="XMLID_3461_">
		<g id="XMLID_3988_">
			<path id="XMLID_3991_" style="fill:#FFA8A7;" d="M378.539,253.201c7.327-23.784,14.459-39.446,7.194-44.296l0,0
				c-6.767,1.253-9.798,4.6-11.236,13.52c-1.509,9.358-4.645,22.39-6.474,29.917c-1.461,6.01-4.313,13.564-6.755,18.163
				c-0.433,0.815-1.155,1.429-1.997,1.758c-2.259,0.884-3.343,2.038-5.185,3.353c-1.442,1.03-2.505,1.145-2.439,1.578
				c0.085,0.556,0.736,1.559,2.264,1.394c0.769-0.083,1.825-0.479,3.151-1.013c0,0-1.334,3.578-3.947,5.764
				c-3.542,2.962-3.013,5.926,2.69,6.271c2.042,0.124,6.775-1.738,11.161-9.209c1.263-2.152,2.73-5.675,3.908-8.612
				C373.942,264.142,377.073,257.96,378.539,253.201z"/>
			<path id="XMLID_3990_" style="fill:#27DEBF;" d="M387.028,208.623c0,0-5.639-0.294-9.055,3.474
				c-3.415,3.768-7.408,26.291-7.408,26.291s3.743,5.143,13.608,3.038L387.028,208.623z"/>
			<path id="XMLID_3989_" style="opacity:0.3;" d="M387.028,208.623c0,0-5.639-0.294-9.055,3.474
				c-3.415,3.768-7.408,26.291-7.408,26.291s3.743,5.143,13.608,3.038L387.028,208.623z"/>
		</g>
		<g id="XMLID_3945_">
			<rect id="XMLID_3987_" x="405.839" y="368.384" style="fill:#FFA8A7;" width="7.572" height="13.5"/>
			<polygon id="XMLID_3986_" style="fill:#FFA8A7;" points="387.159,367.664 379.591,367.935 379.212,353.648 387.159,353.377 			
				"/>
			<path id="XMLID_3985_" style="fill:#37474F;" d="M414.477,251.499c0,7.53-1.109,68.135-1.109,68.135
				c0.177,2.167,2.127,6.162,1.705,14.485c-0.573,11.306-1.338,41.015-1.338,41.015s-3.676,2.237-8.43,0.174
				c0,0-7.162-41.15-8.519-52.354c-1.184-9.778-3.193-42.699-3.193-42.699l-4.104,38.279c0,0,1.396,5.832,0.938,12.533
				c-0.354,5.182-2.789,32.171-2.789,32.171s-3.564,2.519-8.742,0.697c0,0-4.307-40.646-4.395-45.401
				c-0.1-5.421,2.518-67.115,2.518-67.115L414.477,251.499z"/>
			<path id="XMLID_3984_" style="fill:#263238;" d="M405.839,377.991v-1.128c-0.724,0.329-2.408,7.017-5.412,9.872
				c-2.388,2.269-5.646,4.889-6.475,7.419c-0.862,2.631,4.537,4.083,6.768,3.672c2.592-0.478,7.086-2.38,8.214-4.142
				c1.128-1.762,1.656-4.363,2.573-5.655c0.917-1.292,3.03-2.734,3.525-4.229c0.272-0.821-0.051-2.62-0.434-4.14
				c-0.351-1.395-0.731-2.928-1.189-2.797c-0.001,0.17,0,0.86,0,0.86c-0.55,0.634-2.07,1.264-3.786,1.333
				C408.517,379.1,405.83,378.872,405.839,377.991z"/>
			<path id="XMLID_3983_" style="fill:#263238;" d="M379.511,365.503c-0.393,0.014-0.713,0.592-1.58,1.57
				c-1.048,1.182-2.762,2.456-4.454,3.338c-2.835,1.478-8.347,3.752-10.842,4.923c-1.559,0.731-1.486,2.692,0.126,3.808
				c1.611,1.116,5.5,1.92,10.171,0.832c2.544-0.593,5.856-3.04,7.952-2.908c2.096,0.132,6.019,0.101,7.566-1.01
				c1.547-1.111,0.928-3.483,0.491-5.522c-0.477-2.225-1.074-5.695-1.781-5.543v0.767c-0.91,1.436-5.608,2.02-7.607,0.963
				L379.511,365.503z"/>
			<path id="XMLID_3980_" style="fill:#263238;" d="M393.592,280.255c0,0-6.052-1.776-10.544-6.297c0,0,2.035,3.967,8.085,7.66
				l-1.294,34.184L393.592,280.255z"/>
		</g>
		<g id="XMLID_3920_">
			<path id="XMLID_3931_" style="fill:#27DEBF;" d="M410.537,210.423c0,0,5.925,0.542,5.504,11.83l-1.309,17.981l0.036,26.983
				c-5.568,6.309-30.251,5.847-38.702-0.505c0,0,0.958-31.933,1.528-44.22c0.405-8.736,2.416-13.133,11.001-14.096l10.558,0.465
				L410.537,210.423z"/>
			<polygon id="XMLID_3921_" style="opacity:0.3;" points="393.712,216.344 392.353,225.823 389.186,225.764 392.759,226.328 			"/>
		</g>
		<g id="XMLID_3860_">
			<path id="XMLID_3880_" style="fill:#263238;" d="M401.608,184.985c0,6.484-5.047,11.741-11.272,11.741
				s-10.992-5.262-11.272-11.741c-0.497-11.465,5.047-11.741,11.272-11.741S401.608,178.501,401.608,184.985z"/>
			<g id="XMLID_3871_">
				<path id="XMLID_3879_" style="fill:#263238;" d="M408.033,190.808c0,0-1.729,8.46-2.422,9.85
					c-0.694,1.39-2.126,1.785-2.126,1.785l0.121-5.951L408.033,190.808z"/>
				<path id="XMLID_3878_" style="fill:#263238;" d="M405.864,178.688c0,0,1.24-0.31,2.557,1.747
					c1.129,1.764,1.385,5.726-0.387,10.373l-3.257,0.389L405.864,178.688z"/>
				<path id="XMLID_3877_" style="fill:#FFA8A7;" d="M403.8,191.2c0.653,0.406,1.585-0.9,2.39-1.778
					c0.805-0.878,3.434-2.077,4.746,0.801c1.336,2.933-1.158,6.809-3.228,7.485c-3.567,1.166-4.102-1.217-4.102-1.217l-0.272,13.401
					c-4.735,7.325-15.461,7.06-11.605-0.354l0.01-4.078c0,0-3.232,0.511-4.809,0.257c-2.623-0.422-4.273-2.578-5.069-5.535
					c-1.278-4.75-1.763-8.585-0.679-17.928c1.188-10.239,12.623-10.346,18.798-6.298C406.155,180.004,403.8,191.2,403.8,191.2z"/>
				<path id="XMLID_3876_" style="fill:#263238;" d="M403.395,206.889c0,0-1.666,3.602-4.638,5.811
					c-2.732,2.03-5.611,2.385-5.611,2.385s2.778,1.84,3.959,4.445c1.181,2.605,9.513-4.566,9.438-9.654c0,0-1.308-5.111-3.099-5.439
					L403.395,206.889z"/>
				<path id="XMLID_3875_" style="fill:#263238;" d="M393.146,215.084c0,0-2.569-1.277-1.417-5.546l0.01-4.078l-1.126,0.151
					c-0.876,0.789-2.256,2.647-2.707,4.69c-0.258,1.168-0.891,7.085,0.237,8.26C389.171,219.631,390.844,215.402,393.146,215.084z"
					/>
				<path id="XMLID_3874_" style="fill:#263238;" d="M399.417,180.036c0.297-0.035,0.611-0.065,0.883,0.059
					c0.969,0.44,1.177,3.453,1.347,4.323c0.573,2.933,1.049,7.905,2.153,7.927c0.329,0.007,1.577-2.152,2.39-2.922
					c1.126-1.068-0.327-10.734-0.327-10.734s1.082-2.403-1.087-4.889c-2.027-2.324-5.214-2.837-8.125-2.997
					c-3.43-0.189-6.913,0.071-10.292-0.68c-1.074-0.239-2.13-0.579-3.225-0.692c-0.102-0.01-0.215-0.016-0.294,0.049
					c-0.11,0.09-0.095,0.26-0.066,0.4c0.21,1.012,0.572,1.993,1.069,2.899c-2.012-0.16-4.005-0.551-5.927-1.165
					c-0.11-0.035-0.228-0.071-0.338-0.036c-0.227,0.071-0.265,0.372-0.252,0.609c0.136,2.428,1.287,6.081,3.256,7.508
					c1.539,1.115,3.955,1.796,5.852,1.845C391.739,181.675,395.03,180.556,399.417,180.036z"/>
				<path id="XMLID_3873_" style="fill:#263238;" d="M405.857,179.198l3.948-2.208c-0.56-1.178-1.898-1.639-2.989-1.03
					C405.726,176.571,405.297,178.02,405.857,179.198z"/>
				<path id="XMLID_3872_" style="fill:#F28F8F;" d="M391.739,205.46c0,0,5.856-1.229,7.903-2.362
					c1.37-0.759,2.499-2.073,2.83-2.916c0,0-0.384,1.81-1.608,3.44c-1.497,1.993-9.125,3.461-9.125,3.461L391.739,205.46z"/>
			</g>
			<g id="XMLID_3861_">
				<path id="XMLID_3870_" style="fill:#263238;" d="M393.146,189.675c0,0.701,0.526,1.268,1.173,1.266
					c0.648-0.002,1.173-0.572,1.173-1.273c0-0.701-0.525-1.268-1.173-1.266C393.672,188.404,393.146,188.974,393.146,189.675z"/>
				<path id="XMLID_3869_" style="fill:#263238;" d="M395.031,184.615l2.51,1.443c0.37-0.751,0.108-1.683-0.585-2.081
					C396.263,183.578,395.401,183.864,395.031,184.615z"/>
				<path id="XMLID_3868_" style="fill:#F28F8F;" d="M392.269,198.118l-2.679,1.047c0.265,0.8,1.08,1.214,1.82,0.925
					C392.15,199.801,392.534,198.918,392.269,198.118z"/>
				<path id="XMLID_3864_" style="fill:#263238;" d="M382.382,185.691l2.289-1.836c-0.467-0.683-1.358-0.825-1.99-0.318
					C382.049,184.044,381.915,185.008,382.382,185.691z"/>
				<path id="XMLID_3863_" style="fill:#263238;" d="M383.387,189.327c0,0.701,0.525,1.268,1.174,1.266
					c0.648-0.002,1.173-0.572,1.173-1.273c0-0.701-0.525-1.268-1.173-1.266C383.912,188.056,383.387,188.626,383.387,189.327z"/>
				<polygon id="XMLID_3862_" style="fill:#F28F8F;" points="389.666,188.346 389.53,195.758 385.324,194.793 				"/>
			</g>
		</g>
		<g id="XMLID_3463_">
			<path id="XMLID_3856_" style="fill:#27DEBF;" d="M422.059,195.796c1.689-2.241,5.11,2.734,6.692,6.163
				c1.582,3.429,1.605,5.371,0.311,6.732c-1.293,1.361-3.748,0.535-6.203-2.713C420.405,202.73,421.094,197.452,422.059,195.796z"/>
			<path id="XMLID_3854_" style="opacity:0.5;" d="M422.059,195.796c1.689-2.241,5.11,2.734,6.692,6.163
				c1.582,3.429,1.605,5.371,0.311,6.732c-1.293,1.361-3.748,0.535-6.203-2.713C420.405,202.73,421.094,197.452,422.059,195.796z"/>
			<g id="XMLID_3852_">
				<path id="XMLID_3853_" style="fill:#FFA8A7;" d="M433.954,196.464c-5.964,14.038-14.349,21.888-18.1,30.896
					c-4.917-0.334-8.745-12.195-5.085-17.269c0,0,14.383-15.569,15.685-21.689c1.156-5.432,2.71-14.392,2.573-18.979
					c-0.023-0.766-0.363-1.474-0.884-2.035c-1.509-1.624-1.511-2.928-2.48-4.722c-0.756-1.398-1.583-1.921-1.347-2.236
					c0.303-0.404,1.26-0.932,2.449-0.181c0.599,0.378,0.988,0.821,1.856,1.781c0,0,0.387-2.474-0.849-5.261
					c-1.674-3.776-1.267-5.703,3.831-4.358c3.194,0.843,5.2,3.503,5.678,11.18c0.138,2.212,0.318,6.791,0.055,9.588
					c-0.553,5.909-0.909,12.068-1.635,16.96C435.38,192.313,434.812,194.443,433.954,196.464z"/>
			</g>
			<path id="XMLID_3683_" style="fill:#27DEBF;" d="M409.315,210.255l12.69-14.497c0,0-1.507,3.536,1.794,8.678
				c3.3,5.142,5.263,4.256,5.263,4.256s-7.487,10.93-9.496,14.589c-2.009,3.659-4.09,6.744-4.09,6.744s-0.501,1.292-2.367,1.292
				C411.244,231.317,406.311,223.058,409.315,210.255z"/>
			<path id="XMLID_3464_" style="opacity:0.3;" d="M409.315,210.255l12.69-14.497c0,0-1.507,3.536,1.794,8.678
				c3.3,5.142,5.263,4.256,5.263,4.256s-7.487,10.93-9.496,14.589c-2.009,3.659-4.09,6.744-4.09,6.744s-0.501,1.292-2.367,1.292
				C411.244,231.317,406.311,223.058,409.315,210.255z"/>
		</g>
	</g>
</g>
<g id="Character_2">
	<g id="XMLID_3992_">
		<g id="XMLID_4622_">
			<g id="XMLID_4625_">
				<polygon id="XMLID_4626_" style="fill:#F28F8F;" points="306.415,242.846 312.388,250.8 305.973,258.154 297.704,248.484 				
					"/>
			</g>
			<g id="XMLID_4623_">
				<path id="XMLID_4624_" style="fill:#455A64;" d="M286.871,224.767c5.21,0.244,7.693,1.049,10.42,4.262
					c2.662,3.136,16.369,22.941,16.369,22.941s-2.411,6.759-7.687,6.184l-9.594-9.89L286.871,224.767z"/>
			</g>
		</g>
		<g id="XMLID_4609_">
			<g id="XMLID_4617_">
				<path id="XMLID_4619_" style="fill:#263238;" d="M261.309,389.893c-0.17,1.255-0.53,2.721-0.597,6.273
					c-0.072,3.808-0.772,5.159-0.864,8.285c-0.106,3.571,0.511,4.907,1.96,6.914c1.449,2.007,5.252,3.828,6.86,0.435
					c1.627-3.433,1.401-5.615,0.887-9.118c-0.531-3.621-0.599-5.621-0.907-8.383c-0.271-2.435-0.596-4.284-0.596-4.284
					L261.309,389.893z"/>
				<path id="XMLID_4618_" style="fill:#FFBDA7;" d="M272.118,359.951l-12.544-0.227c0.186,8.373,1.517,22.313,1.734,30.169
					c0.041,1.479-0.037,11.492,0.521,14.535c0.838,4.572,6.265,3.954,6.553,1.219c0.288-2.736-0.349-14.426-0.332-15.631
					c-0.048-5.038,2.314-18.189,3.552-27.234C271.663,362.337,272.061,360.384,272.118,359.951z"/>
			</g>
			<g id="XMLID_4612_">
				<path id="XMLID_4614_" style="fill:#263238;" d="M290.554,383.377c0,0-0.648,0.037-0.751,0.565
					c-0.122,0.629-0.149,1.622-0.41,2.654c-0.363,1.434-0.665,3.798-0.447,4.967c0.217,1.169,2.887,2.911,4.712,3.217
					c1.825,0.306,4.401,2.11,5.832,3.456c1.753,1.649,5.534,3.207,8.109,3.188c3.047-0.022,5.171-1.015,6.175-2.646
					c1.049-1.704-0.915-1.829-4.397-4.089c-0.791-0.513-1.691-1.093-2.704-1.755c-5.517-3.604-7.537-5.535-9.097-9.139
					L290.554,383.377z"/>
				<path id="XMLID_4613_" style="fill:#FFBDA7;" d="M297.618,381.416c-0.093-2.593,1.236-21.693,1.236-21.693l-10.79,1.215
					c2.551,15.226,2.758,20.414,2.467,22.629l0,0c-0.02,0.058-0.07,0.269-0.067,0.638c0.011,2.958,3.349,4.553,5.953,6.525
					c1.029,0.779,3.672,3.18,6.771,4.235c2.004,0.682,5.711,0.941,6.187-0.276c-3.169-2.42-7.482-5.582-10.002-8.345
					C298.169,385.024,297.711,384.009,297.618,381.416z"/>
			</g>
			<path id="XMLID_4611_" style="fill:#27DEBF;" d="M262.484,273.359c-5.886,12.856,0.212,58.143,0.212,58.143
				c-0.177,2.086-2.562,6.191-3.451,15.373c-1.05,10.849,1.938,39.893,1.938,39.893s2.866,2.144,7.024,0.15
				c0,0,7.594-42.675,8.955-53.462c1.187-9.414,3.467-30.113,3.467-30.113l6.478,30.062c0,0-1.663,5.274-2.052,9.291
				c-0.615,6.345,5.564,38.189,5.564,38.189s2.891,1.526,6.999-0.137c0,0,2.738-41.14,3.311-48.784
				c0.962-12.836-2.447-52.889-4.801-60.487L262.484,273.359z"/>
			<path id="XMLID_3191_" style="opacity:0.5;" d="M262.484,273.359c-5.886,12.856,0.212,58.143,0.212,58.143
				c-0.177,2.086-2.562,6.191-3.451,15.373c-1.05,10.849,1.938,39.893,1.938,39.893s2.866,2.144,7.024,0.15
				c0,0,7.594-42.675,8.955-53.462c1.187-9.414,3.467-30.113,3.467-30.113l6.478,30.062c0,0-1.663,5.274-2.052,9.291
				c-0.615,6.345,5.564,38.189,5.564,38.189s2.891,1.526,6.999-0.137c0,0,2.738-41.14,3.311-48.784
				c0.962-12.836-2.447-52.889-4.801-60.487L262.484,273.359z"/>
			<path id="XMLID_4610_" style="opacity:0.2;" d="M280.629,303.342l1.911-11.941c0,0,8.084-1.675,11.751-5.122
				c0,0-3.847,4.785-9.56,6.352l-2.146,9.193l3.752,27.836L280.629,303.342z"/>
		</g>
		<g id="XMLID_4360_">
			<g id="XMLID_4362_">
				<path id="XMLID_4377_" style="fill:#27DEBF;" d="M265.503,233.425l8.009,2.086v-16.926l0,0
					c-4.423-1.152-8.009,1.399-8.009,5.698V233.425z"/>
				<path id="XMLID_6_" style="opacity:0.6;" d="M265.503,233.425l8.009,2.086v-16.926l0,0c-4.423-1.152-8.009,1.399-8.009,5.698
					V233.425z"/>
				<path id="XMLID_4608_" style="fill:#27DEBF;" d="M281.343,220.991l-2.874-0.066c-8.757-0.201-15.699-7.757-15.506-16.877l0,0
					c-0.05-9.94,7.694-18.038,17.238-18.09l0,0c9.543-0.052,17.32,7.964,17.37,17.904l-0.025,1.027
					C297.328,213.99,290.082,221.192,281.343,220.991z"/>
				<path id="XMLID_5_" style="opacity:0.6;" d="M281.343,220.991l-2.874-0.066c-8.757-0.201-15.699-7.757-15.506-16.877l0,0
					c-0.05-9.94,7.694-18.038,17.238-18.09l0,0c9.543-0.052,17.32,7.964,17.37,17.904l-0.025,1.027
					C297.328,213.99,290.082,221.192,281.343,220.991z"/>
				<path id="XMLID_2865_" style="fill:#27DEBF;" d="M267.934,190.12c-0.323-1.244-1.564-1.941-2.771-1.557l0.767,2.956
					c-0.163-0.195-0.352-0.371-0.578-0.504c-1.077-0.635-2.425-0.204-3.01,0.961l3.901,2.298c0.204-0.406,0.282-0.848,0.259-1.279
					C267.603,192.544,268.241,191.303,267.934,190.12z"/>
				<path id="XMLID_1_" style="opacity:0.6;" d="M267.934,190.12c-0.323-1.244-1.564-1.941-2.771-1.557l0.767,2.956
					c-0.163-0.195-0.352-0.371-0.578-0.504c-1.077-0.635-2.425-0.204-3.01,0.961l3.901,2.298c0.204-0.406,0.282-0.848,0.259-1.279
					C267.603,192.544,268.241,191.303,267.934,190.12z"/>
				<g id="XMLID_4372_">
					<path id="XMLID_4374_" style="fill:#37474F;" d="M272.663,225.457c0,0-5.791,0.82-8.008,1.539
						c3.099,7.604-1.764,19.348-1.764,19.348l4.588,14.126c-3.164,6.492-5.782,9.713-6.854,14.988
						c2.917,5.701,23.529,11.143,36.946,0.751c0,0-0.434-14.433-2.143-22.842c4.395-8.573,3.678-11.087,2.781-14.076
						c-2.087-6.951-6.306-9.626-11.336-14.524l-3.033-0.318L272.663,225.457z"/>
				</g>
				<path id="XMLID_1928_" style="fill:#263238;" d="M268.011,266.133c2.487-2.555,7.766-3.282,7.766-3.282l-4.842-2.763
					l-5.432-13.097c3.769-7.244,3.264-14.414,3.264-14.414l-3.114-0.747c0.377,6.927-2.762,14.516-2.762,14.516l4.588,14.126
					c-3.164,6.492-5.782,9.713-6.854,14.989c1.997,3.902,12.286,7.681,22.882,6.345
					C269.308,280.856,265.614,268.595,268.011,266.133z"/>
				<g id="XMLID_3196_">
					<path id="XMLID_3198_" style="fill:#E6E6E6;" d="M282.353,281.93c0.193-0.018,0.387-0.042,0.58-0.063
						C282.772,281.871,282.585,281.889,282.353,281.93z"/>
				</g>
				<g id="XMLID_4363_">
					<path id="XMLID_4371_" style="fill:#FFBDA7;" d="M291.127,194.833c1.722,1.58,3.873,5.012,3.701,15.036
						c-0.146,8.496-2.779,10.609-4.104,11.221c-1.324,0.612-3.886,0.258-6.378-0.16l-0.03,3.519c0,0,3.285,3.643,3.08,5.982
						c-0.205,2.339-4.673,3.309-7.903,1.043c-3.23-2.266-5.98-6.05-5.98-6.05l-0.034-10.689c0,0-1.457,1.49-3.953-0.758
						c-2.06-1.856-2.766-5.001-1.177-6.699c1.589-1.698,4.545-1.254,5.69,1.149c0,0,5.681-0.475,10.921-3.215
						C289.603,202.783,291.462,198.394,291.127,194.833z"/>
					<path id="XMLID_4370_" style="fill:#263238;" d="M284.344,207.923c0.033,0.612-0.399,1.133-0.965,1.164
						c-0.566,0.031-1.051-0.44-1.083-1.052c-0.033-0.612,0.399-1.133,0.965-1.164C283.827,206.839,284.312,207.311,284.344,207.923z
						"/>
					<path id="XMLID_4369_" style="fill:#F79776;" d="M284.727,215.042l2.669,0.871c-0.217,0.796-0.991,1.245-1.728,1.005
						C284.93,216.677,284.509,215.837,284.727,215.042z"/>
					<path id="XMLID_4368_" style="fill:#263238;" d="M293.956,204.088l-2.422-0.827c0.182-0.701,0.872-1.084,1.541-0.856
						C293.743,202.634,294.138,203.387,293.956,204.088z"/>
					<path id="XMLID_4367_" style="fill:#27DEBF;" d="M274.052,207.415l-0.028,3.594c0.96,0.046,1.745-0.722,1.752-1.715
						C275.784,208.303,275.012,207.461,274.052,207.415z"/>
					<path id="XMLID_7_" style="opacity:0.6;" d="M274.052,207.415l-0.028,3.594c0.96,0.046,1.745-0.722,1.752-1.715
						C275.784,208.303,275.012,207.461,274.052,207.415z"/>
					<path id="XMLID_4366_" style="fill:#263238;" d="M293.118,207.571c0.033,0.612-0.4,1.133-0.965,1.164
						c-0.566,0.031-1.051-0.44-1.083-1.052c-0.033-0.612,0.399-1.133,0.965-1.164C292.6,206.488,293.086,206.959,293.118,207.571z"
						/>
					<polygon id="XMLID_4365_" style="fill:#F79776;" points="287.422,206.115 287.396,213.077 290.64,212.011 					"/>
					<path id="XMLID_4364_" style="fill:#F79776;" d="M284.346,220.93c-2.625-0.344-8.029-1.93-8.881-4.147
						c0,0,0.287,1.395,1.906,2.826c1.62,1.43,6.961,3.036,6.961,3.036L284.346,220.93z"/>
				</g>
			</g>
		</g>
		<g id="XMLID_4067_">
			<path id="XMLID_4359_" style="fill:#FFBDA7;" d="M252.35,261.029c0,0,6.417,9.116,7.521,10.309
				c1.104,1.192,1.855,0.796,3.047,0.265c1.192-0.531,3.457-1.209,4.46-1.457c1.962-0.486,2.385,1.325,0.442,2.616
				c-1.405,0.934-3.014,1.342-2.341,2.109c0.673,0.767,2.75,2.109,4.681,2.87c4.736,1.868,4.37,2.805,3.498,4.339
				c-0.759,1.336-2.972,4.217-11.444,0.815c-3.495-1.404-8.419-5.393-10.74-7.965c-3.35-3.712-8.575-10.362-8.575-10.362
				L252.35,261.029z"/>
			<path id="XMLID_4358_" style="fill:#455A64;" d="M265.889,226.669c-2.324,0.155-6.691,0.715-12.171,9.813
				c-4.806,7.98-12.255,18.811-13.64,22.682c-0.559,1.561,1.625,4.817,4.429,8.146c3.836-0.168,7.325-2.818,9.136-4.937
				c-0.839-1.943-1.769-3.213-1.769-3.213l11.243-12.821c0,0,4.27-3.911,5.164-9.031C269.24,231.824,268.942,227.48,265.889,226.669
				z"/>
		</g>
		<g id="XMLID_3993_">
			<g id="XMLID_4063_">
				<polygon id="XMLID_4065_" style="fill:#27DEBF;" points="328.82,243.928 301.106,251.227 293.478,282.583 319.826,274.931 				
					"/>
				<polygon id="XMLID_4064_" style="opacity:0.25;" points="328.82,243.928 301.106,251.227 293.478,282.583 319.826,274.931 				
					"/>
			</g>
			<g id="XMLID_4061_" style="opacity:0.1;">
				<path id="XMLID_4062_" d="M316.297,266.133c0.257,0.703,1.956,3.25,5.182,3.097l0.201-0.693L316.297,266.133z"/>
			</g>
			<g id="XMLID_4055_" style="opacity:0.1;">
				<path id="XMLID_4056_" d="M320.471,248.908c0,0,0.102-0.473,0.229-1.057c0.126-0.584-1.5-0.609-3.633-0.056l-4.083,1.059
					c-2.132,0.553-3.963,1.475-4.09,2.058l-0.229,1.057L320.471,248.908z"/>
			</g>
			<g id="XMLID_4000_">
				<path id="XMLID_4001_" style="fill:#37474F;" d="M322.6,244.935c0.08-0.365-0.579-0.461-1.472-0.214l-1.617,0.447
					c0,0,0.482-2.286-3.106-1.487c-3.588,0.799-4.372,3.395-4.372,3.395s-0.773,0.219-1.726,0.49s-1.818,0.785-1.93,1.148
					l-0.204,0.658l14.276-3.759C322.448,245.613,322.52,245.3,322.6,244.935z"/>
			</g>
			<g id="XMLID_3998_">
				<path id="XMLID_3999_" style="fill:#37474F;" d="M320.634,246.063c-1.308,0.316-1.852,0.489-2.047,1.389
					c-0.223,1.028-0.314,1.782-0.314,1.782l-6.318,1.67c0,0,0.305-1.301,0.403-1.809c0.098-0.507-0.118-0.813-1.123-0.547
					l-0.085-0.403l9.9-2.521L320.634,246.063z"/>
			</g>
			<g id="XMLID_3996_">
				<path id="XMLID_3997_" style="fill:#37474F;" d="M320.851,249.008c0,0,0.102-0.473,0.229-1.057
					c0.126-0.584-1.5-0.609-3.633-0.056l-4.083,1.059c-2.132,0.553-3.963,1.475-4.09,2.059l-0.229,1.057L320.851,249.008z"/>
			</g>
			<g id="XMLID_3994_">
				<path id="XMLID_3995_" style="fill:#FFBDA7;" d="M325.899,253.994c0,0-1.037,3.545-1.274,4.39
					c-0.237,0.845-3.342,2.364-5.379,2.924c-2.037,0.56-4.265,1.223-3.301,4.071c0.889,2.627,4.241,3.226,5.948,3.152
					c1.707-0.074,4.043-1.706,4.964-4.335c1.174-3.354,0.541-6.937,1.008-8.896C328.331,253.342,326.92,252.826,325.899,253.994z"/>
			</g>
		</g>
	</g>
</g>
<g id="Character_1_1_">
	<g id="XMLID_4627_">
		<g id="XMLID_4729_">
			<path id="XMLID_4731_" style="fill:#914F4E;" d="M220.931,254.828c-3.801-3.83-5.159-2.341-5.64,1.859
				c-0.354,3.099-1.268,5.132-1.268,5.132c-0.269-1.297-0.382-1.89-0.714-2.534c-0.661-1.279-1.778-1.31-2.255-1.11
				c-0.371,0.155,0.087,1.045,0.029,2.671c-0.074,2.084-0.748,3.235-0.261,5.448c0.183,0.829,0.031,1.693-0.373,2.44
				c-2.05,3.794-8.594,10.821-13.204,15.874c-4.076-3.683-13.193-11.92-17.558-15.853c-5.988-5.395-7.941-7.828-13.732-7.432
				c0,0,2.243,0.683,4.927,2.953c2.683,2.27,2.045,15.262,2.045,15.262s19.922,14.286,21.97,15.645
				c0.301,0.2,0.608,0.38,0.913,0.543c2,1.065,4.477,0.559,5.968-1.146c4.255-4.862,10.45-14.428,14.035-19.401
				c1.681-2.332,3.306-5.518,4.331-7.541C223.703,260.615,223.313,257.227,220.931,254.828z"/>
			<path id="XMLID_4730_" style="fill:#27DEBF;" d="M166.545,260.969c0,0,4.036-1.055,8.012,1.963
				c3.419,2.595,17.963,15.969,17.963,15.969s0.395,7.085-6.996,11.314l-17.879-12.608L166.545,260.969z"/>
			<path id="XMLID_2372_" style="opacity:0.3;" d="M166.545,260.969c0,0,4.036-1.055,8.012,1.963
				c3.419,2.595,17.963,15.969,17.963,15.969s0.395,7.085-6.996,11.314l-17.879-12.608L166.545,260.969z"/>
		</g>
		<g id="XMLID_4680_">
			<rect id="XMLID_4728_" x="141.73" y="420.957" style="fill:#914F4E;" width="7.572" height="13.5"/>
			<polygon id="XMLID_4727_" style="fill:#914F4E;" points="167.982,420.237 175.55,420.508 175.929,406.22 167.982,405.95 			"/>
			<path id="XMLID_4726_" style="fill:#37474F;" d="M140.664,304.072c0,7.53,1.109,68.135,1.109,68.135
				c-0.176,2.167-2.127,6.162-1.705,14.485c0.574,11.306,1.338,41.015,1.338,41.015s3.676,2.237,8.43,0.174
				c0,0,7.162-41.15,8.519-52.354c1.184-9.778,3.193-42.699,3.193-42.699l4.104,38.279c0,0-1.396,5.832-0.938,12.533
				c0.354,5.182,2.789,32.171,2.789,32.171s3.564,2.519,8.742,0.697c0,0,4.307-40.646,4.395-45.401
				c0.1-5.421-2.518-67.115-2.518-67.115L140.664,304.072z"/>
			<path id="XMLID_4725_" style="fill:#263238;" d="M149.302,430.564v-1.128c0.725,0.329,2.408,7.017,5.412,9.872
				c2.388,2.269,5.646,4.889,6.475,7.419c0.862,2.631-4.537,4.083-6.768,3.672c-2.592-0.478-7.086-2.38-8.214-4.142
				c-1.128-1.763-1.656-4.363-2.573-5.655c-0.917-1.292-3.03-2.734-3.525-4.229c-0.272-0.821,0.051-2.62,0.433-4.14
				c0.351-1.395,0.731-2.928,1.189-2.797c0.001,0.17,0,0.86,0,0.86c0.55,0.634,2.07,1.264,3.786,1.333
				C146.624,431.673,149.311,431.444,149.302,430.564z"/>
			<path id="XMLID_4682_" style="fill:#263238;" d="M175.63,418.076c0.393,0.014,0.713,0.592,1.58,1.569
				c1.048,1.182,2.762,2.456,4.454,3.338c2.835,1.478,8.347,3.752,10.842,4.923c1.559,0.731,1.486,2.692-0.126,3.808
				c-1.611,1.116-5.5,1.92-10.171,0.832c-2.544-0.593-5.856-3.04-7.952-2.908c-2.096,0.132-6.019,0.101-7.566-1.01
				c-1.547-1.111-0.928-3.483-0.491-5.522c0.477-2.225,1.074-5.695,1.781-5.543v0.767c0.91,1.436,5.608,2.02,7.607,0.963
				L175.63,418.076z"/>
			<path id="XMLID_4681_" style="fill:#263238;" d="M161.548,332.828c0,0,6.052-1.776,10.544-6.297c0,0-2.035,3.967-8.085,7.66
				l1.294,34.184L161.548,332.828z"/>
		</g>
		<g id="XMLID_4677_">
			<path id="XMLID_4679_" style="fill:#27DEBF;" d="M144.604,262.996c0,0-5.925,0.542-5.504,11.83l1.309,17.981l-0.123,26.983
				c5.568,6.309,30.251,5.847,38.702-0.505c0,0-0.871-31.933-1.441-44.22c-0.406-8.736-2.416-13.133-11.001-14.096l-10.558,0.465
				L144.604,262.996z"/>
			<polygon id="XMLID_4678_" style="opacity:0.3;" points="161.429,268.917 162.788,278.396 165.955,278.337 162.382,278.901 			"/>
		</g>
		<g id="XMLID_4674_">
			<path id="XMLID_4676_" style="fill:#914F4E;" d="M125.811,301.757c3.072-24.697,10.137-36.973,18.752-38.417l-0.611,15.802
				c0,0-5.786,13.192-8.198,26.145c-1.132,6.08-2.445,16.65-2.104,21.846c0.06,0.92,0.468,1.777,1.1,2.423
				c1.697,1.732,2.213,3.23,3.353,5.185c0.893,1.531,1.815,2.072,1.577,2.439c-0.305,0.472-1.31,1.12-2.637,0.343
				c-0.667-0.391-1.468-1.186-2.459-2.216c0,0-0.251,3.81,1.236,6.876c2.015,4.154,1.68,6.346-3.901,5.122
				c-3.497-0.767-6.02-4.456-6.955-13.068c-0.269-2.481-0.304-6.493-0.173-9.655C125.13,316.349,125.196,306.698,125.811,301.757z"
				/>
			<path id="XMLID_4675_" style="fill:#27DEBF;" d="M145.054,262.932c-4.474-0.017-8.554,0.769-11.799,7.019
				c-3.112,5.995-5.505,18.692-6.714,22.837c0,0,6.532,3.86,12.537,3.767l4.233-14.684
				C143.311,281.87,146.168,275.015,145.054,262.932z"/>
			<path id="XMLID_2361_" style="opacity:0.3;" d="M145.054,262.932c-4.474-0.017-8.554,0.769-11.799,7.019
				c-3.112,5.995-5.505,18.692-6.714,22.837c0,0,6.532,3.86,12.537,3.767l4.233-14.684
				C143.311,281.87,146.168,275.015,145.054,262.932z"/>
		</g>
		<g id="XMLID_4646_">
			<path id="XMLID_4673_" style="fill:#263238;" d="M154.278,237.507c0,6.484,5.047,11.741,11.272,11.741
				s11.272-5.256,11.272-11.741c0-6.484-5.047-11.74-11.272-11.74S154.278,231.023,154.278,237.507z"/>
			<g id="XMLID_4654_">
				<path id="XMLID_4672_" style="fill:#263238;" d="M147.108,243.381c0,0,1.729,8.46,2.422,9.85
					c0.693,1.39,2.126,1.785,2.126,1.785l-0.121-5.951L147.108,243.381z"/>
				<path id="XMLID_4671_" style="fill:#263238;" d="M149.277,231.261c0,0-1.24-0.31-2.557,1.747
					c-1.129,1.764-1.385,5.726,0.387,10.373l3.257,0.389L149.277,231.261z"/>
				<path id="XMLID_4670_" style="fill:#914F4E;" d="M151.341,243.773c-0.653,0.406-1.585-0.9-2.39-1.778
					c-0.805-0.877-3.434-2.077-4.746,0.801c-1.336,2.933,1.158,6.809,3.228,7.485c3.567,1.166,4.102-1.217,4.102-1.217l0.272,13.401
					c4.735,7.324,15.461,7.06,11.605-0.354l-0.01-4.078c0,0,3.232,0.511,4.809,0.257c2.623-0.422,4.273-2.578,5.069-5.535
					c1.278-4.75,1.763-8.585,0.679-17.927c-1.189-10.239-12.623-10.346-18.798-6.298
					C148.986,232.577,151.341,243.773,151.341,243.773z"/>
				<path id="XMLID_4659_" style="fill:#263238;" d="M151.746,259.461c0,0,1.666,3.602,4.638,5.811
					c2.732,2.03,5.611,2.385,5.611,2.385s-2.778,1.84-3.959,4.445c-1.181,2.605-9.513-4.566-9.438-9.654
					c0,0,1.308-5.111,3.099-5.439L151.746,259.461z"/>
				<path id="XMLID_4658_" style="fill:#263238;" d="M161.995,267.657c0,0,2.569-1.277,1.417-5.546l-0.01-4.078l1.126,0.151
					c0.876,0.789,2.256,2.647,2.707,4.69c0.258,1.168,0.891,7.085-0.237,8.26C165.97,272.203,164.297,267.975,161.995,267.657z"/>
				<path id="XMLID_4657_" style="fill:#263238;" d="M151.341,244.917c-0.329,0.007-1.577-2.152-2.39-2.922
					c-1.126-1.067,0.326-10.734,0.326-10.734s-1.082-2.403,1.087-4.889c1.543-1.769,4.122-1.965,8.525-2.686
					c1.715-0.281,3.547-0.467,5.22-0.941c1.79-0.507,3.552-1.695,5.219-2.54c0.552-0.28,1.169-0.567,1.766-0.407
					c0.574,0.154,0.974,0.702,1.122,1.277c0.149,0.575,0.092,1.181,0.034,1.772c1.02-1.126,3.013-0.961,4.055,0.145
					c1.042,1.106,1.186,2.857,0.633,4.273s-1.695,2.529-2.954,3.379c-5.534,3.735-12.065,2.699-18.259,1.965
					c-0.297-0.035-0.611-0.065-0.883,0.059c-0.969,0.44-1.177,3.453-1.347,4.324C152.921,239.924,152.445,244.895,151.341,244.917z"
					/>
				<path id="XMLID_4656_" style="fill:#263238;" d="M149.284,231.771l-3.948-2.207c0.56-1.178,1.898-1.64,2.989-1.03
					C149.415,229.144,149.844,230.593,149.284,231.771z"/>
				<path id="XMLID_4655_" style="fill:#783736;" d="M163.402,258.033c0,0-5.856-1.229-7.903-2.362
					c-1.37-0.759-2.499-2.073-2.83-2.916c0,0,0.384,1.81,1.608,3.44c1.497,1.993,9.125,3.461,9.125,3.461L163.402,258.033z"/>
			</g>
			<g id="XMLID_4647_">
				<path id="XMLID_4653_" style="fill:#263238;" d="M161.284,241.9c0,0.701-0.526,1.268-1.174,1.266
					c-0.648-0.002-1.173-0.572-1.173-1.273c0-0.701,0.525-1.268,1.173-1.266C160.758,240.629,161.284,241.199,161.284,241.9z"/>
				<path id="XMLID_4652_" style="fill:#263238;" d="M159.269,236.821l-2.51,1.443c-0.37-0.751-0.108-1.683,0.585-2.081
					C158.037,235.784,158.899,236.07,159.269,236.821z"/>
				<path id="XMLID_4651_" style="fill:#783736;" d="M162.872,250.691l2.679,1.047c-0.265,0.8-1.08,1.214-1.82,0.925
					C162.991,252.373,162.607,251.491,162.872,250.691z"/>
				<path id="XMLID_4650_" style="fill:#263238;" d="M173.006,238.221l-2.638-1.285c0.305-0.769,1.142-1.104,1.87-0.75
					C172.967,236.541,173.311,237.452,173.006,238.221z"/>
				<path id="XMLID_4649_" style="fill:#263238;" d="M171.266,241.9c0,0.701-0.525,1.268-1.174,1.266
					c-0.648-0.002-1.173-0.572-1.173-1.273c0-0.701,0.525-1.268,1.173-1.266C170.741,240.629,171.266,241.199,171.266,241.9z"/>
				<polygon id="XMLID_4648_" style="fill:#783736;" points="164.618,240.992 164.755,248.404 168.961,247.439 				"/>
			</g>
		</g>
		<g id="XMLID_4628_">
			<g id="XMLID_4638_">
				<path id="XMLID_4642_" style="fill:#263238;" d="M159.468,238.837c-1.586,0-2.877,1.315-2.877,2.931
					c0,1.616,1.29,2.931,2.877,2.931h0.534c1.586,0,2.876-1.315,2.876-2.931c0-1.616-1.29-2.931-2.876-2.931H159.468z
					 M156.007,241.767c0-1.944,1.552-3.525,3.46-3.525l0.534,0c1.908,0,3.46,1.581,3.46,3.525c0,1.944-1.552,3.525-3.46,3.525
					h-0.534C157.559,245.293,156.007,243.711,156.007,241.767z"/>
			</g>
			<g id="XMLID_4634_">
				<path id="XMLID_4635_" style="fill:#263238;" d="M170.018,238.837c-1.586,0-2.877,1.315-2.877,2.931
					c0,1.616,1.291,2.931,2.877,2.931l0.535,0c1.586,0,2.876-1.315,2.876-2.931c0-1.616-1.291-2.931-2.876-2.931H170.018z
					 M166.557,241.768c0-1.944,1.552-3.525,3.46-3.525h0.535c1.908,0,3.46,1.581,3.46,3.525c0,1.944-1.552,3.525-3.46,3.525h-0.535
					C168.109,245.293,166.557,243.711,166.557,241.768z"/>
			</g>
			<path id="XMLID_4633_" style="fill:#263238;" d="M163.419,241.072c0.32-0.535,1.038-0.908,1.828-0.949
				c0.681-0.036,1.281,0.194,1.595,0.613l0.465-0.359c-0.436-0.585-1.197-0.894-2.089-0.847c-0.993,0.052-1.872,0.524-2.296,1.233
				L163.419,241.072z"/>
			<rect id="XMLID_4632_" x="150.364" y="241.043" style="fill:#263238;" width="5.964" height="0.594"/>
		</g>
	</g>
</g>
</svg>
