<?xml version="1.0" encoding="UTF-8"?>
<svg version="1.1" xmlns="http://www.w3.org/2000/svg" width="512" height="512">
<path d="M0 0 C0.70549 -0.00382555 1.41098001 -0.00765109 2.1378485 -0.01159257 C4.50771522 -0.02193183 6.87734007 -0.01792871 9.2472229 -0.01396179 C10.94396693 -0.0183078 12.64070899 -0.02349057 14.33744812 -0.02944946 C18.95111745 -0.0428637 23.56470499 -0.04341537 28.17839003 -0.04088616 C32.02784946 -0.03981795 35.87729224 -0.04469606 39.72674811 -0.04949158 C48.80796717 -0.06059547 57.88914487 -0.06101943 66.97036743 -0.05497742 C76.34243541 -0.04893779 85.71435326 -0.06124634 95.08639562 -0.08254749 C103.12894028 -0.10015557 111.17143712 -0.10616604 119.21400034 -0.10290974 C124.01913636 -0.10109525 128.82416532 -0.1037495 133.62928391 -0.11762428 C138.14861024 -0.13018488 142.6677024 -0.12827532 147.18702507 -0.11521339 C148.84586223 -0.11284408 150.50471578 -0.11559499 152.16353416 -0.12383652 C154.42806181 -0.13427613 156.69179972 -0.12622637 158.95629883 -0.11352539 C160.85718293 -0.113777 160.85718293 -0.113777 162.79646873 -0.1140337 C166.37089255 0.29079559 168.2460686 1.12186916 171.10513306 3.26069641 C172.96444672 6.02149549 173.42222205 8.33476875 173.48013306 11.63569641 C173.50849243 12.36530579 173.53685181 13.09491516 173.56607056 13.84663391 C172.38995934 20.00626721 167.07271169 24.56578509 162.77095032 28.79501343 C162.13795999 29.42547921 161.50496966 30.05594499 160.85279781 30.7055158 C158.73938297 32.80821077 156.61891024 34.9036403 154.4984436 36.9992218 C152.97853527 38.50873948 151.45911282 40.01874651 149.94013977 41.52920532 C146.67321646 44.77627474 143.40340525 48.02039816 140.13147545 51.26242256 C134.96170543 56.38604262 129.80172007 61.5194395 124.6436615 66.65484619 C109.97682604 81.2548249 95.30170999 95.84640772 80.60586548 110.41719055 C72.48599874 118.46812063 64.37679936 126.52963391 56.27943832 134.60320085 C51.15115554 139.71524821 46.00997323 144.81384681 40.85910165 149.90312779 C37.66473024 153.06558411 34.48293381 156.24045546 31.30467415 159.41909599 C29.82434641 160.89456289 28.33883059 162.36484483 26.84790802 163.8296051 C24.81936601 165.82401109 22.80995601 167.83588586 20.80439758 169.85336304 C19.90531198 170.72418671 19.90531198 170.72418671 18.98806304 171.61260277 C15.96816124 174.6132673 15.96816124 174.6132673 14.9808321 178.60283375 C16.64773627 182.54341775 18.46411582 186.37554931 20.39468384 190.1938324 C21.06869327 191.54463782 21.06869327 191.54463782 21.75631905 192.92273223 C23.26534141 195.94337931 24.78290617 198.95965235 26.30044556 201.97602844 C27.38322168 204.13909776 28.46546379 206.30243446 29.54721069 208.46601868 C31.87857189 213.12603384 34.21357576 217.78420418 36.55184937 222.44075394 C39.93407913 229.1763915 43.30928477 235.91552936 46.68271565 242.65557717 C52.15818353 253.59507068 57.63871246 264.53202018 63.12271118 275.46723938 C68.4460988 286.0822369 73.7681067 296.69792335 79.08755493 307.31489563 C79.41529632 307.96902483 79.74303771 308.62315403 80.08071065 309.29710533 C83.6575123 316.43607246 87.23375364 323.57532006 90.80932617 330.71490288 C91.12342497 331.34208209 91.43752376 331.9692613 91.7611407 332.61544593 C93.01663867 335.12239026 94.27213051 337.62933765 95.52755046 340.13632105 C99.20517172 347.48023151 102.88454488 354.82325795 106.56706858 362.16471146 C109.14821819 367.31058779 111.72751689 372.45738995 114.30615997 377.60452271 C115.36608998 379.71929977 116.42672115 381.83372557 117.48809052 383.94778061 C118.93240939 386.8247876 120.37429464 389.70300127 121.81558228 392.58152771 C122.23999163 393.42538721 122.66440098 394.26924671 123.10167122 395.13867772 C123.48621908 395.90791439 123.87076694 396.67715107 124.26696777 397.46969795 C124.60019987 398.13415621 124.93343197 398.79861447 125.27676201 399.48320782 C126.70428767 402.54634068 127.23269431 405.04204888 127.25230408 408.37747192 C127.25945938 409.21434036 127.26661469 410.0512088 127.27398682 410.91343689 C127.27667572 411.82829865 127.27936462 412.7431604 127.28213501 413.68574524 C127.28870621 414.65190262 127.2952774 415.61806 127.30204773 416.61349487 C127.32177937 419.81490657 127.33344244 423.01627139 127.34341431 426.21772766 C127.34748983 427.31074377 127.35156536 428.40375988 127.35576439 429.52989769 C127.37662354 435.31394131 127.39092652 441.0979612 127.40029907 446.8820343 C127.41136924 452.85759123 127.44577691 458.83277638 127.48547077 464.80820179 C127.5116065 469.40215755 127.51998817 473.99602426 127.52358055 478.59004784 C127.52845356 480.79286399 127.54008779 482.99567598 127.55861855 485.19841957 C127.58294692 488.28173497 127.58205634 491.36408214 127.57510376 494.44746399 C127.59431885 495.81064758 127.59431885 495.81064758 127.61392212 497.20137024 C127.56868772 502.70812556 126.83127193 505.92413835 123.10513306 510.26069641 C118.78955371 513.13774931 115.1727538 512.81508943 110.10513306 512.26069641 C106.35189793 511.28316756 102.82999871 509.8820177 99.24624634 508.40864563 C98.21067596 507.99887985 97.17510559 507.58911407 96.1081543 507.16693115 C92.70707289 505.81623676 89.31640019 504.44128239 85.92544556 503.06538391 C83.54763924 502.11433472 81.16928294 501.16465955 78.79040527 500.21629333 C73.81179443 498.22749824 68.83766655 496.22807508 63.86734009 494.21870422 C57.52355111 491.65414455 51.17170853 489.11021305 44.81694221 486.57299614 C38.72505313 484.14058182 32.63780295 481.69661161 26.55044556 479.25288391 C25.40170078 478.79273769 24.25295601 478.33259148 23.06940079 477.85850143 C-9.53144592 464.77941331 -9.53144592 464.77941331 -12.89486694 459.26069641 C-14.49155187 455.3807266 -13.74033495 451.27083728 -13.40194702 447.18867493 C-7.83060126 402.45358797 -7.83060126 402.45358797 -18.56332397 360.73139954 C-27.45823782 350.64993954 -40.52947691 345.78186887 -52.74935913 340.93501282 C-61.92837013 337.15646674 -69.73117263 331.38395992 -77.75991821 325.63261414 C-82.15561823 322.50982519 -86.63667404 319.5152703 -91.11361694 316.51069641 C-92.44291733 315.61395454 -92.44291733 315.61395454 -93.79907227 314.69909668 C-103.77720544 307.97143399 -113.83564712 301.36620102 -123.89486694 294.76069641 C-140.56347722 283.81419891 -157.14145657 272.74134903 -173.64901733 261.55342102 C-181.77116058 256.0508574 -189.90503304 250.57306907 -198.11752319 245.20600891 C-199.53049991 244.27908857 -200.94342477 243.35208917 -202.35629272 242.42500305 C-204.91819949 240.74461551 -207.48901542 239.07930854 -210.06625366 237.42256165 C-211.19569718 236.68298026 -212.32478955 235.94286223 -213.45346069 235.20210266 C-214.89676758 234.26926453 -214.89676758 234.26926453 -216.36923218 233.31758118 C-220.6160087 229.85899324 -222.70601163 226.81092273 -223.37588501 221.3122406 C-223.38737554 219.80044734 -223.3770815 218.28838521 -223.34896851 216.77680969 C-223.34955261 215.94688004 -223.35013672 215.11695038 -223.35073853 214.26187134 C-223.34796466 211.53448311 -223.31690645 208.80820483 -223.28549194 206.08100891 C-223.27802706 204.18386939 -223.27233529 202.28672214 -223.26834106 200.38957214 C-223.25310425 195.40814238 -223.21383925 190.42718275 -223.16952515 185.44593811 C-223.1285303 180.3582139 -223.11032105 175.27041336 -223.09017944 170.18257141 C-223.04734313 160.20840708 -222.97911544 150.23459091 -222.89486694 140.26069641 C-223.44593927 140.26438358 -223.9970116 140.26807076 -224.5647831 140.27186966 C-237.98591216 140.36028361 -251.40699007 140.42618098 -264.82834816 140.4679451 C-271.31889319 140.488821 -277.80922804 140.51713944 -284.2996521 140.56245422 C-290.56310467 140.60591075 -296.82635506 140.62983349 -303.08994675 140.64020538 C-305.47977252 140.64759701 -307.86958721 140.66203101 -310.25932693 140.68361664 C-313.60634539 140.71264704 -316.95252803 140.71665242 -320.2996521 140.71479797 C-321.28796021 140.72917908 -322.27626831 140.74356018 -323.29452515 140.75837708 C-328.99649238 140.72418519 -332.42857882 140.17625984 -336.89486694 136.26069641 C-339.75620061 131.96869591 -339.71425689 128.29298747 -338.89486694 123.26069641 C-335.87941833 116.80099686 -328.33794 112.52141989 -322.80892944 108.28413391 C-318.77339567 105.18690744 -314.83126704 101.98242692 -310.89486694 98.76069641 C-305.37217867 94.25224435 -299.80300395 89.81225545 -294.18392944 85.42475891 C-289.71049986 81.92293394 -285.29619493 78.35258477 -280.89486694 74.76069641 C-275.3714701 70.25309668 -269.80302259 65.81226999 -264.18392944 61.42475891 C-259.71049454 57.92292978 -255.29638791 54.3523544 -250.89486694 50.76069641 C-216.41724991 22.65123952 -216.41724991 22.65123952 -209.31332397 22.81001282 C-198.52412141 24.82059912 -187.05768036 35.4421924 -178.121521 41.52903748 C-173.40274853 44.74218843 -168.67470091 47.94160779 -163.94564819 51.13960266 C-162.96659012 51.80175278 -161.98753204 52.46390289 -160.97880554 53.14611816 C-149.90330246 60.62423646 -138.74827349 67.98100937 -127.58236694 75.32319641 C-126.63071655 75.94897583 -125.67906616 76.57475525 -124.69857788 77.21949768 C-121.19474258 79.52295905 -117.69078778 81.82623244 -114.18495178 84.12664795 C-110.07749759 86.82217955 -105.97863023 89.52939305 -101.89486694 92.26069641 C-98.6934234 90.84923935 -96.55498491 89.16665598 -94.09321594 86.69282532 C-93.35160721 85.95252075 -92.60999847 85.21221619 -91.84591675 84.44947815 C-91.042146 83.6369458 -90.23837524 82.82441345 -89.4102478 81.98725891 C-88.55616837 81.13186523 -87.70208893 80.27647156 -86.8221283 79.39515686 C-84.96792314 77.53668773 -83.1156456 75.6765107 -81.26640129 73.81312561 C-78.34248792 70.86692352 -75.41148208 67.92784656 -72.47947693 64.98970032 C-67.84342584 60.34227436 -63.21207281 55.6901989 -58.582748 51.03607368 C-50.29042494 42.6994043 -41.99250455 34.36831526 -33.68935114 26.04243279 C-30.77558839 23.12026172 -27.86465843 20.19530591 -24.95597255 17.26808167 C-22.72257423 15.02154465 -20.4860427 12.77812971 -18.25009155 10.53413391 C-17.44429657 9.72160156 -16.63850159 8.90906921 -15.80828857 8.07191467 C-15.06949966 7.33161011 -14.33071075 6.59130554 -13.5695343 5.8285675 C-12.60806189 4.86181595 -12.60806189 4.86181595 -11.62716579 3.87553406 C-7.69632698 0.21123185 -5.24812216 0.00850667 0 0 Z M7.10513306 24.26069641 C3.93653608 30.5046741 3.93653608 30.5046741 1.22427368 36.85762024 C0.74976524 38.08437973 0.74976524 38.08437973 0.26567078 39.33592224 C-0.06574417 40.20441803 -0.39715912 41.07291382 -0.73861694 41.96772766 C-1.28075584 43.37319351 -1.28075584 43.37319351 -1.83384705 44.80705261 C-2.6149103 46.83289498 -3.39423641 48.8594078 -4.17199707 50.88652039 C-6.28871925 56.40248572 -8.41896722 61.91323105 -10.54721069 67.42475891 C-10.98826645 68.56799118 -11.4293222 69.71122345 -11.88374329 70.88909912 C-16.53057022 82.92623605 -21.23954145 94.93874602 -25.95736694 106.94819641 C-27.21702487 110.15582457 -28.47659668 113.36348653 -29.73616028 116.57115173 C-30.56874502 118.69143766 -31.40139641 120.81169741 -32.2341156 122.93193054 C-34.99203356 129.95568499 -37.74282569 136.98219306 -40.48861694 144.01069641 C-40.8606424 144.96271439 -41.23266785 145.91473236 -41.6159668 146.89559937 C-43.09391468 150.67784496 -44.57183056 154.46010163 -46.04788208 158.24308777 C-50.41139056 169.42535943 -54.81694313 180.58948006 -59.27767944 191.73335266 C-60.17224973 193.97329481 -61.06670088 196.21328454 -61.96102905 198.45332336 C-63.67999633 202.75868002 -65.40890128 207.0598682 -67.14315796 211.35908508 C-67.91886133 213.30008973 -68.69419104 215.24124376 -69.46908569 217.18257141 C-69.83265167 218.07601761 -70.19621765 218.96946381 -70.57080078 219.88998413 C-70.89390228 220.70422348 -71.21700378 221.51846283 -71.54989624 222.3573761 C-71.83535812 223.0669043 -72.12082001 223.7764325 -72.41493225 224.50746155 C-73.12875075 226.34917756 -73.12875075 226.34917756 -71.89486694 228.26069641 C-46.03094605 202.41963954 -20.16964111 176.57596761 5.68813393 150.72876087 C8.73743366 147.68071192 11.78675515 144.63268475 14.83609009 141.58467102 C15.44318489 140.97783853 16.05027969 140.37100604 16.6757713 139.74578469 C26.51966616 129.90624705 36.36532487 120.06847616 46.21163088 110.23135138 C56.30674649 100.14557089 66.39997748 90.0579073 76.49144316 79.96847481 C82.72384951 73.73744398 88.95774009 67.50790558 95.19350755 61.28023838 C99.46324109 57.01577055 103.7311509 52.74948327 107.99760067 48.48173017 C110.46310557 46.01558162 112.92943553 43.55027254 115.39792442 41.08711052 C118.06706721 38.42289549 120.73316234 35.75566882 123.39846802 33.08761597 C124.18833052 32.3006663 124.97819303 31.51371664 125.79199076 30.70292002 C126.49912006 29.99379967 127.20624936 29.28467932 127.93480682 28.55407047 C128.55147264 27.93778438 129.16813846 27.32149828 129.80349112 26.68653685 C131.21750129 25.45937633 131.21750129 25.45937633 131.10513306 24.26069641 C90.18513306 24.26069641 49.26513306 24.26069641 7.10513306 24.26069641 Z M-198.89486694 58.26069641 C-198.89486694 102.15069641 -198.89486694 146.04069641 -198.89486694 191.26069641 C-193.44028759 186.63248254 -193.44028759 186.63248254 -188.28172302 181.76780701 C-187.65786713 181.14532578 -187.03401123 180.52284454 -186.39125061 179.88150024 C-185.40509514 178.88995186 -185.40509514 178.88995186 -184.39901733 177.87837219 C-183.6859845 177.16548538 -182.97295166 176.45259857 -182.23831177 175.71810913 C-179.90400138 173.38310727 -177.57324384 171.04459346 -175.24252319 168.70600891 C-173.61606876 167.07768757 -171.98939203 165.44958823 -170.36250305 163.82170105 C-166.09751198 159.55290625 -161.83553358 155.28111601 -157.57418823 151.00868225 C-153.21871372 146.64294738 -148.86037921 142.2800697 -144.50228882 137.91694641 C-135.96368947 129.36764759 -127.42827201 120.81517964 -118.89486694 112.26069641 C-121.77819205 109.27944253 -124.55060625 106.61575881 -128.02548218 104.3483429 C-128.81017883 103.83201294 -129.59487549 103.31568298 -130.40335083 102.78370667 C-131.24488708 102.23857422 -132.08642334 101.69344177 -132.95346069 101.13179016 C-133.84293396 100.5485498 -134.73240723 99.96530945 -135.64883423 99.36439514 C-138.53981931 97.47021063 -141.43604599 95.58420961 -144.33236694 93.69819641 C-147.31931774 91.74426457 -150.30493164 89.78830189 -153.29045105 87.83218384 C-155.28787749 86.523629 -157.285752 85.21575785 -159.28407288 83.90856934 C-165.3558981 79.93465237 -171.4101141 75.93598497 -177.44174194 71.90132141 C-178.1506105 71.42715286 -178.85947906 70.95298431 -179.58982849 70.46444702 C-182.23100826 68.69620005 -184.87111379 66.92637999 -187.5088501 65.15299988 C-189.26525175 63.97228927 -191.02331166 62.79408472 -192.78158569 61.61616516 C-193.75313599 60.96285217 -194.72468628 60.30953918 -195.72567749 59.63642883 C-197.60750373 58.17143252 -197.60750373 58.17143252 -198.89486694 58.26069641 Z M-230.64486694 66.07319641 C-235.24814799 70.04347008 -239.90746021 73.90540869 -244.70736694 77.63569641 C-249.82153032 81.61600536 -254.8752068 85.66182018 -259.89486694 89.76069641 C-264.98316493 93.91291933 -270.09896224 98.02424027 -275.26986694 102.07319641 C-275.8397937 102.51969543 -276.40972046 102.96619446 -276.99691772 103.42622375 C-278.09951344 104.28964052 -279.20221198 105.152926 -280.30502319 106.0160675 C-282.79752002 107.96734957 -285.28687865 109.92232224 -287.76986694 111.88569641 C-288.57166382 112.51733704 -289.37346069 113.14897766 -290.19955444 113.79975891 C-290.75900757 114.28186829 -291.31846069 114.76397766 -291.89486694 115.26069641 C-291.89486694 115.59069641 -291.89486694 115.92069641 -291.89486694 116.26069641 C-269.12486694 116.26069641 -246.35486694 116.26069641 -222.89486694 116.26069641 C-222.89486694 98.11069641 -222.89486694 79.96069641 -222.89486694 61.26069641 C-226.21838401 61.26069641 -228.24774252 63.96890153 -230.64486694 66.07319641 Z M-40.08078104 67.3175292 C-40.68096519 67.92062619 -41.28114933 68.52372317 -41.89952087 69.14509583 C-42.53332591 69.77804644 -43.16713096 70.41099706 -43.82014221 71.06312799 C-45.96145333 73.2027808 -48.09915077 75.34600885 -50.23690796 77.48921204 C-51.76391497 79.01650087 -53.29114172 80.54357004 -54.818573 82.07043457 C-58.97971474 86.23128815 -63.13775535 90.3952286 -67.2952702 94.55970573 C-71.63503568 98.90570154 -75.97761309 103.2488857 -80.31990051 107.59236145 C-88.54899912 115.82457432 -96.77554422 124.05933409 -105.00118822 132.29499865 C-114.3630358 141.66800441 -123.7277063 151.03818757 -133.09262192 160.40812778 C-152.36319276 179.68916517 -171.63019329 198.97376698 -190.89486694 218.26069641 C-189.74725081 221.70354481 -189.12480684 222.05426502 -186.18661499 223.96186829 C-184.99953949 224.74137093 -184.99953949 224.74137093 -183.78848267 225.53662109 C-182.91995667 226.09525345 -182.05143066 226.6538858 -181.15658569 227.22944641 C-180.25607483 227.81825089 -179.35556396 228.40705536 -178.42776489 229.01370239 C-175.48402688 230.93672871 -172.53327663 232.84869736 -169.58236694 234.76069641 C-165.5539193 237.38592422 -161.52896194 240.01647716 -157.50424194 242.64741516 C-156.00751198 243.62426521 -156.00751198 243.62426521 -154.48054504 244.62084961 C-148.56196957 248.4904477 -142.68010876 252.40651911 -136.84799194 256.40522766 C-136.18866165 256.85699371 -135.52933136 257.30875977 -134.85002136 257.7742157 C-131.85404011 259.83102977 -128.86562148 261.89814663 -125.88388062 263.97554016 C-124.34051025 265.03901672 -124.34051025 265.03901672 -122.76596069 266.12397766 C-121.8886731 266.73539612 -121.0113855 267.34681458 -120.10751343 267.97676086 C-117.88876596 269.51164329 -117.88876596 269.51164329 -114.89486694 269.26069641 C-102.26206069 237.12610685 -89.64540504 204.98533253 -77.07162476 172.82759094 C-73.76005267 164.35821651 -70.4471401 155.88936674 -67.13375854 147.42070007 C-66.02870065 144.59577852 -64.92415046 141.77065886 -63.81967163 138.94551086 C-60.15506077 129.57442046 -56.48223855 120.20665746 -52.79327393 110.84512329 C-50.94233203 106.14767386 -49.09362101 101.44934758 -47.24490356 96.75102234 C-46.35209733 94.48413246 -45.45811429 92.21770567 -44.56289673 89.95176697 C-43.31648123 86.79676489 -42.0740405 83.64022338 -40.83236694 80.48335266 C-40.46239594 79.55005127 -40.09242493 78.61674988 -39.71124268 77.65516663 C-37.84599263 72.90129088 -36.1963542 68.19985741 -34.89486694 63.26069641 C-37.11454096 63.26069641 -38.58811206 65.8303444 -40.08078104 67.3175292 Z M-16.25168705 206.49446869 C-17.12416411 207.36832844 -17.12416411 207.36832844 -18.01426697 208.25984192 C-18.6803598 208.92456009 -19.34645264 209.58927826 -20.0327301 210.2741394 C-21.1353997 211.38220192 -21.1353997 211.38220192 -22.26034546 212.51264954 C-23.41636261 213.66844765 -23.41636261 213.66844765 -24.59573364 214.84759521 C-27.15745581 217.41001732 -29.71561197 219.97596966 -32.27377319 222.54194641 C-34.04332607 224.31336318 -35.813099 226.08456015 -37.58308411 227.85554504 C-41.77460308 232.05049968 -45.9638883 236.24767647 -50.15211099 240.44592142 C-55.38636543 245.6924302 -60.62405468 250.93550575 -65.86166382 256.17866516 C-75.20883552 265.53657818 -84.55292839 274.89755932 -93.89486694 284.26069641 C-90.95231558 286.65010477 -88.00009114 288.94241302 -84.85604858 291.05952454 C-84.09136261 291.57593002 -83.32667664 292.09233551 -82.53881836 292.62438965 C-81.71916595 293.17468338 -80.89951355 293.72497711 -80.05502319 294.29194641 C-79.18783661 294.87660172 -78.32065002 295.46125702 -77.42718506 296.06362915 C-74.60548626 297.96500135 -71.78158527 299.86306899 -68.95736694 301.76069641 C-67.01665503 303.06622247 -65.07598141 304.37180548 -63.13534546 305.67744446 C-59.24020176 308.29716288 -55.34385598 310.91508072 -51.44662476 313.5316925 C-47.18275171 316.3946417 -42.92221514 319.26248932 -38.66337585 322.13291931 C-35.86593989 324.01705514 -33.06583722 325.89719123 -30.26470947 327.77583313 C-28.97994204 328.63841834 -27.69618233 329.50250644 -26.41345215 330.36811829 C-24.65884286 331.55153122 -22.90049873 332.72916044 -21.14096069 333.90522766 C-20.16828247 334.55854065 -19.19560425 335.21185364 -18.19345093 335.88496399 C-16.0553201 337.43188217 -16.0553201 337.43188217 -13.89486694 337.26069641 C-13.89486694 293.70069641 -13.89486694 250.14069641 -13.89486694 205.26069641 C-15.07720558 205.14856938 -15.07720558 205.14856938 -16.25168705 206.49446869 Z M11.10513306 228.26069641 C11.10513306 300.20069641 11.10513306 372.14069641 11.10513306 446.26069641 C55.92746944 470.37581178 55.92746944 470.37581178 103.10513306 482.26069641 C109.57866111 438.05516701 103.24455286 403.32192463 83.19888306 363.41694641 C82.70045269 362.42471951 82.20202232 361.4324926 81.68848801 360.41019821 C75.51137389 348.17419069 69.08986112 336.07429309 62.5753603 324.01523495 C56.95372704 313.59452862 51.50777966 303.08509354 46.07018948 292.56750965 C34.93217987 271.03297713 23.59286761 249.61047812 12.10513306 228.26069641 C11.77513306 228.26069641 11.44513306 228.26069641 11.10513306 228.26069641 Z " fill="#000000" transform="translate(338.8948669433594,-0.2606964111328125)"/>
</svg>
